# xmcd CD database file
#
# Track frame offsets:
#	150
#	30755
#	34019
#	58859
#	76794
#	103094
#	120737
#	139842
#	168122
#
# Disc length: 2569 seconds
#
# Revision: 2
# Processed by: cddbd v1.4b41PL1 Copyright (c) Steve Scherf et al.
# Submitted via: Feurio! 1.50.2ß - http://www.feurio.com
#
DISCID=670a0709
DTITLE=Tin Machine - Now 2
DYEAR=1900
DGENRE=
TTITLE0=I can´t read
TTITLE1=Jeepster
TTITLE2=Maggie´s farm
TTITLE3=Tin Machine
TTITLE4=Baby can dance
TTITLE5=Shakin´all over
TTITLE6=Pretty thing
TTITLE7=Crack City
TTITLE8=Under the god
EXTD=
EXTT0=
EXTT1=
EXTT2=
EXTT3=
EXTT4=
EXTT5=
EXTT6=
EXTT7=
EXTT8=
PLAYORDER=
